<svg height="512pt" viewBox="0 -37 512 512" width="512pt" xmlns="http://www.w3.org/2000/svg"><path d="m404.644531 0h-379.871093c-13.679688 0-24.773438 11.09375-24.773438 24.773438v330.324218c0 13.679688 11.09375 24.773438 24.773438 24.773438h379.871093c13.683594 0 24.773438-11.09375 24.773438-24.773438v-330.324218c0-13.679688-11.089844-24.773438-24.773438-24.773438zm0 0" fill="#eceaec"/><path d="m404.644531 0h-379.871093c-13.679688 0-24.773438 11.09375-24.773438 24.773438v41.289062h189.933594c4.5625 0 8.257812-3.695312 8.257812-8.257812v-24.773438h66.066406v24.777344c0 4.558594 3.695313 8.257812 8.257813 8.257812h156.902344v-41.292968c0-13.679688-11.089844-24.773438-24.773438-24.773438zm0 0" fill="#dad8db"/><g fill="#c8c5c9"><path d="m140.386719 33.03125c-4.5625 0-8.257813 3.699219-8.257813 8.257812v24.777344h57.804688c4.5625 0 8.257812-3.699218 8.257812-8.257812v-16.519532c0-4.558593 3.699219-8.257812 8.257813-8.257812zm0 0"/><path d="m388.128906 33.03125h-41.289062c-4.5625 0-8.257813 3.699219-8.257813 8.257812v24.777344h57.804688v-24.777344c0-4.558593-3.695313-8.257812-8.257813-8.257812zm0 0"/><path d="m256 33.03125c4.5625 0 8.257812 3.699219 8.257812 8.257812v16.519532c0 4.558594 3.695313 8.257812 8.257813 8.257812h49.546875v-24.777344c0-4.558593-3.695312-8.257812-8.257812-8.257812zm0 0"/></g><path d="m33.113281 41.289062c-4.566406 0-8.296875-3.695312-8.296875-8.257812 0-4.558594 3.652344-8.257812 8.214844-8.257812h.082031c4.566407 0 8.257813 3.699218 8.257813 8.257812 0 4.5625-3.695313 8.257812-8.257813 8.257812zm0 0" fill="#ff8086"/><path d="m66.144531 41.289062c-4.566406 0-8.296875-3.695312-8.296875-8.257812 0-4.558594 3.652344-8.257812 8.21875-8.257812h.078125c4.566407 0 8.257813 3.699218 8.257813 8.257812 0 4.5625-3.691406 8.257812-8.257813 8.257812zm0 0" fill="#ffe07d"/><path d="m99.175781 41.289062c-4.5625 0-8.296875-3.695312-8.296875-8.257812 0-4.558594 3.652344-8.257812 8.21875-8.257812h.082032c4.5625 0 8.257812 3.699218 8.257812 8.257812 0 4.5625-3.695312 8.257812-8.261719 8.257812zm0 0" fill="#95d6a4"/><path d="m66.066406 107.355469h-33.035156c-4.558594 0-8.257812-3.699219-8.257812-8.257813 0-4.5625 3.699218-8.257812 8.257812-8.257812h33.03125c4.5625 0 8.257812 3.695312 8.257812 8.257812.003907 4.558594-3.695312 8.257813-8.253906 8.257813zm0 0" fill="#fff"/><path d="m355.097656 107.355469h-8.257812c-4.5625 0-8.257813-3.699219-8.257813-8.257813 0-4.5625 3.695313-8.257812 8.257813-8.257812h8.257812c4.558594 0 8.257813 3.695312 8.257813 8.257812 0 4.558594-3.699219 8.257813-8.257813 8.257813zm0 0" fill="#fff"/><path d="m396.386719 107.355469h-8.257813c-4.5625 0-8.257812-3.699219-8.257812-8.257813 0-4.5625 3.695312-8.257812 8.257812-8.257812h8.257813c4.5625 0 8.257812 3.695312 8.257812 8.257812 0 4.558594-3.695312 8.257813-8.257812 8.257813zm0 0" fill="#fff"/><path d="m313.804688 107.355469h-214.707032c-4.5625 0-8.257812-3.699219-8.257812-8.257813 0-4.5625 3.695312-8.257812 8.257812-8.257812h214.710938c4.558594 0 8.257812 3.695312 8.257812 8.257812-.003906 4.558594-3.699218 8.257813-8.261718 8.257813zm0 0" fill="#dad8db"/><path d="m404.644531 132.128906h-264.257812v231.226563h264.257812c4.558594 0 8.257813-3.699219 8.257813-8.257813v-214.710937c0-4.5625-3.695313-8.257813-8.257813-8.257813zm0 0" fill="#5d5360"/><path d="m24.773438 363.355469h115.613281v-231.226563h-115.613281c-4.558594 0-8.257813 3.695313-8.257813 8.257813v214.710937c0 4.558594 3.699219 8.257813 8.257813 8.257813zm0 0" fill="#8bb3ea"/><path d="m33.03125 231.226562v-99.097656h-8.257812c-4.558594 0-8.257813 3.695313-8.257813 8.257813v214.710937c0 4.558594 3.699219 8.257813 8.257813 8.257813h115.613281v-16.933594c-59.980469-4.25-107.355469-54.132813-107.355469-115.195313zm0 0" fill="#739ad6"/><path d="m148.644531 346.839844c-2.789062 0-5.519531-.222656-8.257812-.417969v16.933594h264.257812c4.558594 0 8.257813-3.699219 8.257813-8.257813v-8.257812zm0 0" fill="#4b3f4e"/><path d="m487.226562 437.679688h-214.710937c-13.679687 0-24.773437-11.09375-24.773437-24.777344v-165.160156c0-13.683594 11.09375-24.773438 24.773437-24.773438h214.710937c13.679688 0 24.773438 11.089844 24.773438 24.773438v165.160156c0 13.683594-11.09375 24.777344-24.773438 24.777344zm0 0" fill="#c3ddff"/><path d="m107.355469 181.679688h-66.066407c-4.5625 0-8.257812-3.695313-8.257812-8.257813 0-4.566406 3.695312-8.261719 8.257812-8.261719h66.066407c4.566406 0 8.257812 3.695313 8.257812 8.261719 0 4.5625-3.695312 8.257813-8.257812 8.257813zm0 0" fill="#dbeaff"/><path d="m107.355469 280.773438h-66.066407c-4.5625 0-8.257812-3.695313-8.257812-8.257813s3.695312-8.257813 8.257812-8.257813h66.066407c4.566406 0 8.257812 3.695313 8.257812 8.257813s-3.695312 8.257813-8.257812 8.257813zm0 0" fill="#dbeaff"/><path d="m107.355469 313.808594h-16.515625c-4.566406 0-8.257813-3.695313-8.257813-8.257813 0-4.566406 3.691407-8.261719 8.257813-8.261719h16.515625c4.566406 0 8.257812 3.695313 8.257812 8.261719 0 4.5625-3.695312 8.257813-8.257812 8.257813zm0 0" fill="#fff"/><path d="m107.355469 214.710938h-41.289063c-4.566406 0-8.257812-3.695313-8.257812-8.257813 0-4.566406 3.691406-8.257813 8.257812-8.257813h41.289063c4.566406 0 8.257812 3.691407 8.257812 8.257813 0 4.5625-3.695312 8.257813-8.257812 8.257813zm0 0" fill="#fff"/><path d="m107.355469 247.742188h-41.289063c-4.566406 0-8.257812-3.695313-8.257812-8.257813s3.691406-8.257813 8.257812-8.257813h41.289063c4.566406 0 8.257812 3.695313 8.257812 8.257813s-3.695312 8.257813-8.257812 8.257813zm0 0" fill="#fff"/><path d="m198.195312 181.679688h-24.773437c-4.566406 0-8.261719-3.695313-8.261719-8.257813 0-4.566406 3.695313-8.261719 8.261719-8.261719h24.773437c4.5625 0 8.257813 3.695313 8.257813 8.261719 0 4.5625-3.695313 8.257813-8.257813 8.257813zm0 0" fill="#ff8086"/><path d="m396.386719 181.679688h-165.160157c-4.566406 0-8.257812-3.695313-8.257812-8.257813 0-4.566406 3.691406-8.261719 8.257812-8.261719h165.160157c4.566406 0 8.257812 3.695313 8.257812 8.261719 0 4.5625-3.691406 8.257813-8.257812 8.257813zm0 0" fill="#8bb3ea"/><path d="m231.226562 214.710938h-57.804687c-4.566406 0-8.261719-3.695313-8.261719-8.257813 0-4.566406 3.695313-8.257813 8.261719-8.257813h57.804687c4.5625 0 8.257813 3.691407 8.257813 8.257813 0 4.5625-3.695313 8.257813-8.257813 8.257813zm0 0" fill="#8bb3ea"/><path d="m214.710938 247.742188h-41.289063c-4.566406 0-8.261719-3.695313-8.261719-8.257813s3.695313-8.257813 8.261719-8.257813h41.289063c4.5625 0 8.257812 3.695313 8.257812 8.257813s-3.695312 8.257813-8.257812 8.257813zm0 0" fill="#ff8086"/><path d="m214.710938 280.773438h-41.289063c-4.566406 0-8.261719-3.695313-8.261719-8.257813s3.695313-8.257813 8.261719-8.257813h41.289063c4.5625 0 8.257812 3.695313 8.257812 8.257813s-3.695312 8.257813-8.257812 8.257813zm0 0" fill="#8bb3ea"/><path d="m338.582031 379.871094c-2.113281 0-4.226562-.804688-5.839843-2.417969l-41.289063-41.292969c-3.226563-3.222656-3.226563-8.449218 0-11.675781l41.289063-41.289063c3.226562-3.226562 8.453124-3.226562 11.675781 0 3.226562 3.226563 3.226562 8.453126 0 11.675782l-35.449219 35.453125 35.449219 35.453125c3.226562 3.226562 3.226562 8.449218 0 11.675781-1.613281 1.613281-3.722657 2.417969-5.835938 2.417969zm0 0" fill="#fff"/><path d="m421.160156 379.871094c-2.113281 0-4.226562-.804688-5.839844-2.417969-3.222656-3.226563-3.222656-8.453125 0-11.679687l35.453126-35.449219-35.453126-35.453125c-3.222656-3.226563-3.222656-8.453125 0-11.675782 3.226563-3.226562 8.453126-3.226562 11.679688 0l41.289062 41.289063c3.226563 3.226563 3.226563 8.453125 0 11.675781l-41.289062 41.292969c-1.613281 1.613281-3.726562 2.417969-5.839844 2.417969zm0 0" fill="#fff"/><path d="m363.363281 404.644531c-.660156 0-1.339843-.082031-2.007812-.25-4.425781-1.105469-7.121094-5.589843-6.007813-10.007812l33.03125-132.128907c1.097656-4.433593 5.589844-7.128906 10.007813-6.007812 4.425781 1.105469 7.121093 5.589844 6.007812 10.007812l-33.03125 132.128907c-.9375 3.757812-4.296875 6.257812-8 6.257812zm0 0" fill="#fff"/><path d="m346.839844 421.160156c-45.609375 0-82.582032-36.972656-82.582032-82.578125v-114.210937c-9.601562 3.414062-16.515624 12.601562-16.515624 23.371094v165.160156c0 13.683594 11.09375 24.773437 24.773437 24.773437h214.710937c10.769532 0 19.957032-6.914062 23.367188-16.515625zm0 0" fill="#a4ccff"/></svg>