<svg id="Capa_1" enable-background="new 0 0 512 512" height="512" viewBox="0 0 512 512" width="512" xmlns="http://www.w3.org/2000/svg"><g><path d="m341.465 149.05c-15.421-9.294-27.344-23.791-33.363-41.056l-58.027-8-45.761 8c-6.019 17.265-17.942 31.762-33.363 41.056-13.307 8.02-17.106 25.554-7.92 38.085l74.435 101.539c9.285 12.666 28.2 12.666 37.486 0l74.435-101.539c9.184-12.531 5.385-30.065-7.922-38.085z" fill="#fedf30"/><path d="m193.74 64.497 11.693-60.367c.465-2.398 2.564-4.13 5.007-4.13h91.535c2.443 0 4.542 1.732 5.007 4.13l11.694 60.368-64.693 9z" fill="#01c0fa"/><path d="m306.982 4.13c-.465-2.398-2.564-4.13-5.007-4.13h-24.478c2.443 0 4.542 1.732 5.007 4.13l11.694 60.368h24.478z" fill="#0290cf"/><path d="m388.279 492.816c-4.225 0-7.649-3.425-7.649-7.649 0-68.607-55.816-124.422-124.423-124.422s-124.422 55.816-124.422 124.422c0 4.225-3.425 7.649-7.649 7.649s-7.649-3.425-7.649-7.649c0-77.042 62.679-139.721 139.721-139.721 77.043 0 139.722 62.679 139.722 139.721-.001 4.224-3.426 7.649-7.651 7.649z" fill="#465a61"/><path d="m165.513 86.245c0 12.011 9.737 21.748 21.748 21.748h137.892c12.011 0 21.748-9.737 21.748-21.748s-9.737-21.748-21.748-21.748h-137.892c-12.011 0-21.748 9.737-21.748 21.748z" fill="#596c76"/><path d="m325.153 64.497h-24.478c12.011 0 21.748 9.737 21.748 21.748s-9.737 21.748-21.748 21.748h24.478c12.011 0 21.748-9.737 21.748-21.748s-9.736-21.748-21.748-21.748z" fill="#465a61"/><path d="m341.465 149.05c-16.011-9.65-27.623-24.591-33.363-41.056h-103.789c-3.151 9.038-7.933 17.306-13.974 24.478h96.184c6.573 0 12.896 2.495 17.712 6.968 3.899 3.621 8.168 6.848 12.752 9.61 13.307 8.02 17.106 25.554 7.92 38.085l-74.435 101.539c-1.839 2.508-4.059 4.512-6.504 6.027 9.899 6.135 23.535 4.131 30.982-6.027l74.435-101.539c9.186-12.531 5.387-30.065-7.92-38.085z" fill="#e8b800"/><path d="m256.207 187.802c-4.225 0-7.649 3.425-7.649 7.649v101.436c4.941 1.709 10.358 1.709 15.299 0v-101.436c0-4.224-3.425-7.649-7.65-7.649z" fill="#465a61"/><path d="m263.857 270.416-13.384 18.258c-.596.813-1.244 1.553-1.914 2.26v5.925c.293.102.586.203.882.293.211.064.421.132.633.19.468.127.941.232 1.414.329.198.041.395.089.594.125.516.092 1.035.158 1.555.216.16.018.319.045.479.06.665.06 1.332.092 1.999.095.016 0 .032.002.048.002.688.002 1.376-.029 2.062-.088.178-.015.354-.047.531-.066.494-.054.987-.112 1.477-.197.268-.047.533-.112.8-.168.395-.083.791-.165 1.182-.269.298-.079.591-.174.886-.265.254-.078.506-.16.758-.247v-26.453z" fill="#465a61"/><g fill="#596c76"><path d="m234.059 345.446h-124.966c-4.225 0-7.649 3.425-7.649 7.649s3.425 7.649 7.649 7.649h124.967c4.225 0 7.649-3.425 7.649-7.649s-3.425-7.649-7.65-7.649z"/><path d="m402.907 345.446h-124.966c-4.225 0-7.649 3.425-7.649 7.649s3.425 7.649 7.649 7.649h124.967c4.225 0 7.649-3.425 7.649-7.649s-3.425-7.649-7.65-7.649z"/></g><path d="m272.841 326.262h-33.267c-5.624 0-10.199 4.575-10.199 10.199v33.268c0 5.624 4.575 10.199 10.199 10.199h33.267c5.624 0 10.199-4.575 10.199-10.199v-33.268c0-5.624-4.575-10.199-10.199-10.199z" fill="#01c0fa"/><path d="m256 150.74c-13.733 0-24.906 11.173-24.906 24.906s11.173 24.905 24.906 24.905 24.906-11.172 24.906-24.905-11.173-24.906-24.906-24.906z" fill="#465a61"/><circle cx="420.043" cy="353.095" fill="#fe9738" r="22.236"/><circle cx="91.957" cy="353.095" fill="#fe9738" r="22.236"/><g fill="#0ed2b3"><path d="m404.913 458.334h-33.267c-5.624 0-10.199 4.575-10.199 10.199v33.267c0 5.624 4.575 10.199 10.199 10.199h33.267c5.624 0 10.199-4.575 10.199-10.199v-33.267c0-5.624-4.575-10.199-10.199-10.199z"/><path d="m140.769 458.334h-33.267c-5.624 0-10.199 4.575-10.199 10.199v33.267c0 5.624 4.575 10.199 10.199 10.199h33.267c5.624 0 10.199-4.575 10.199-10.199v-33.267c0-5.624-4.575-10.199-10.199-10.199z"/></g></g></svg>