<svg id="Capa_1" enable-background="new 0 0 512 512" height="512" viewBox="0 0 512 512" width="512" xmlns="http://www.w3.org/2000/svg"><g><path d="m199.23 449.739 28.927-67.142 24.864-11 30.822 11 28.927 67.142-55.213 11z" fill="#e8edf2"/><path d="m293.829 405.776-9.986-23.179h-55.686l-9.986 23.179z" fill="#c5d3dd"/><path d="m484.061 23.124h-456.123c-15.429 0-27.938 12.508-27.938 27.938v303.596c0 15.43 12.509 27.939 27.939 27.939h456.123c15.43 0 27.939-12.509 27.939-27.939v-303.596c-.001-15.43-12.51-27.938-27.94-27.938z" fill="#0ed2b3"/><path d="m484.061 23.124h-24.896c15.43 0 27.935 12.509 27.935 27.939v303.596c0 15.43-12.509 27.939-27.939 27.939h24.9c15.43 0 27.939-12.509 27.939-27.939v-303.597c0-15.43-12.509-27.938-27.939-27.938z" fill="#01998d"/><path d="m484.061 23.124h-456.123c-15.43 0-27.938 12.508-27.938 27.938v250.262c0 15.43 12.509 27.939 27.939 27.939h456.123c15.43 0 27.939-12.508 27.939-27.939v-250.262c-.001-15.43-12.509-27.938-27.94-27.938z" fill="#596c76"/><path d="m510.744 42.754c-.952-3.062-2.417-5.898-4.294-8.408-5.095-6.813-13.227-11.222-22.388-11.222h-24.896c15.427.004 27.935 12.511 27.935 27.939v278.033c14-1.515 24.9-13.368 24.9-27.771v-250.263c-.001-2.893-.441-5.683-1.257-8.308z" fill="#465a61"/><path d="m332.59 449.739h-153.18c-13.733 0-24.866 11.133-24.866 24.866v6.013c0 4.561 3.698 8.259 8.259 8.259h186.393c4.561 0 8.259-3.698 8.259-8.259v-6.013c0-13.733-11.132-24.866-24.865-24.866z" fill="#0ed2b3"/><path d="m331.839 449.739h-23.865c14.147 0 25.616 11.469 25.616 25.616v5.013c0 4.699-3.809 8.508-8.508 8.508h23.865c4.699 0 8.508-3.809 8.508-8.508v-5.013c0-14.147-11.468-25.616-25.616-25.616z" fill="#01998d"/><path d="m130.169 73.167v183.67c0 8.534 6.918 15.453 15.453 15.453h183.67c8.534 0 15.453-6.918 15.453-15.453v-183.67c0-8.534-6.918-15.453-15.453-15.453h-183.67c-8.535.001-15.453 6.919-15.453 15.453z" fill="#01c0fa"/><path d="m329.292 57.715h-23.179c8.534 0 15.453 6.919 15.453 15.453v183.67c0 8.534-6.918 15.453-15.453 15.453h23.179c8.534 0 15.453-6.918 15.453-15.453v-183.671c0-8.534-6.919-15.452-15.453-15.452z" fill="#0290cf"/><g><path d="m305.88 178.039 116.95 116.95c2.111 2.111 5.533 2.111 7.644 0l14.96-14.96c2.111-2.111 2.111-5.533 0-7.644l-116.95-116.95c-2.111-2.111-5.533-2.111-7.644 0l-14.96 14.96c-2.111 2.11-2.111 5.533 0 7.644z" fill="#c365af"/><path d="m305.88 178.039 30.265 30.265 22.604-22.604-30.265-30.265c-2.111-2.111-5.533-2.111-7.644 0l-14.96 14.96c-2.111 2.11-2.111 5.533 0 7.644z" fill="#d8ecfe"/></g><path d="m432.877 119.158c-14.413 4.251-20.179 10.018-24.431 24.431-.993 3.366-5.749 3.366-6.741 0-4.251-14.413-10.018-20.179-24.431-24.431-3.366-.993-3.366-5.749 0-6.741 14.413-4.251 20.179-10.018 24.431-24.431.993-3.366 5.749-3.366 6.741 0 4.251 14.413 10.018 20.179 24.431 24.431 3.366.992 3.366 5.748 0 6.741z" fill="#fe9738"/><path d="m347.551 275.661c-14.413 4.251-20.179 10.018-24.431 24.431-.993 3.366-5.749 3.366-6.741 0-4.251-14.413-10.018-20.179-24.431-24.431-3.366-.993-3.366-5.749 0-6.741 14.413-4.251 20.179-10.018 24.431-24.431.993-3.366 5.749-3.366 6.741 0 4.251 14.413 10.018 20.179 24.431 24.431 3.366.992 3.366 5.748 0 6.741z" fill="#fe9738"/><path d="m237.457 173.494c-4.268 0-7.726 3.459-7.726 7.726v91.069h15.453v-91.069c-.001-4.266-3.46-7.726-7.727-7.726z" fill="#aa6a51"/><path d="m264.734 107.105c-.816 0-1.622.044-2.416.127-.911.096-1.665-.658-1.569-1.569.083-.794.127-1.6.127-2.416 0-12.934-10.485-23.419-23.419-23.419s-23.419 10.485-23.419 23.419c0 .816.044 1.622.127 2.416.096.911-.658 1.665-1.569 1.569-.794-.083-1.6-.127-2.416-.127-12.934 0-23.419 10.485-23.419 23.419s10.485 23.419 23.419 23.419c.816 0 1.622-.044 2.416-.127.911-.096 1.665.658 1.569 1.569-.083.794-.127 1.6-.127 2.416 0 12.934 10.485 23.419 23.419 23.419s23.419-10.485 23.419-23.419c0-.816-.044-1.622-.127-2.416-.096-.911.658-1.665 1.569-1.569.794.083 1.6.127 2.416.127 12.934 0 23.419-10.485 23.419-23.419.001-12.934-10.485-23.419-23.419-23.419z" fill="#fedf30"/><circle cx="237.457" cy="130.524" fill="#596c76" r="14.737"/><g fill="#5de1c4"><ellipse cx="211.859" cy="216.617" rx="17.616" ry="29.542" transform="matrix(.5 -.866 .866 .5 -81.667 291.784)"/><ellipse cx="263.054" cy="216.617" rx="29.542" ry="17.616" transform="matrix(.866 -.5 .5 .866 -73.066 160.548)"/></g></g></svg>