<svg id="Capa_1" enable-background="new 0 0 512 512" height="512" viewBox="0 0 512 512" width="512" xmlns="http://www.w3.org/2000/svg"><g><path d="m496.555 478.027h-481.11c-8.53 0-15.445-6.915-15.445-15.445v-413.164c0-8.53 6.915-15.444 15.445-15.444h481.111c8.53 0 15.445 6.915 15.445 15.444v413.164c-.001 8.53-6.916 15.445-15.446 15.445z" fill="#e6e2e6"/><path d="m496.555 459.446h-481.11c-8.53 0-15.445-6.915-15.445-15.444v18.581c0 8.53 6.915 15.444 15.445 15.444h481.111c8.53 0 15.445-6.915 15.445-15.444v-18.581c-.001 8.529-6.916 15.444-15.446 15.444z" fill="#d8d1d7"/><path d="m496.555 33.973h-481.11c-8.53 0-15.445 6.915-15.445 15.445v61.745h512v-61.745c0-8.53-6.915-15.445-15.445-15.445z" fill="#8c808a"/><path d="m0 92.582h512v18.581h-512z" fill="#7b7179"/><path d="m473.836 298.86h-435.265c-2.845 0-5.151-2.306-5.151-5.151v-139.244c0-2.845 2.306-5.151 5.151-5.151h435.265c2.845 0 5.151 2.306 5.151 5.151v139.243c0 2.845-2.306 5.152-5.151 5.152z" fill="#ffc265"/><path d="m38.571 298.86h435.265c2.845 0 5.151-2.306 5.151-5.151v-13.429h-445.567v13.429c0 2.844 2.306 5.151 5.151 5.151z" fill="#ffb541"/><path d="m473.836 444.909h-435.265c-2.845 0-5.151-2.306-5.151-5.151v-105.888c0-2.845 2.306-5.151 5.151-5.151h435.265c2.845 0 5.151 2.306 5.151 5.151v105.888c0 2.845-2.306 5.151-5.151 5.151z" fill="#8bcaff"/><path d="m38.571 444.909h435.265c2.845 0 5.151-2.306 5.151-5.151v-13.43h-445.567v13.43c0 2.845 2.306 5.151 5.151 5.151z" fill="#60b8ff"/><g><g fill="#ffc265"><path d="m263.489 389.825v25.178c0 4.276 3.466 7.742 7.742 7.742s7.742-3.466 7.742-7.742v-25.178c0-4.276-3.466-7.742-7.742-7.742-4.275 0-7.742 3.465-7.742 7.742z"/><path d="m205.013 389.825v25.178c0 4.276 3.466 7.742 7.742 7.742s7.742-3.466 7.742-7.742v-25.178c0-4.276-3.466-7.742-7.742-7.742s-7.742 3.465-7.742 7.742z"/><path d="m289.763 358.624v56.379c0 4.276 3.466 7.742 7.742 7.742s7.742-3.466 7.742-7.742v-56.379c0-4.276-3.466-7.742-7.742-7.742s-7.742 3.466-7.742 7.742z"/><path d="m316.036 358.624v56.379c0 4.276 3.466 7.742 7.742 7.742s7.742-3.466 7.742-7.742v-56.379c0-4.276-3.466-7.742-7.742-7.742-4.275 0-7.742 3.466-7.742 7.742z"/><path d="m342.31 389.825v25.178c0 4.276 3.466 7.742 7.742 7.742s7.742-3.466 7.742-7.742v-25.178c0-4.276-3.466-7.742-7.742-7.742s-7.742 3.465-7.742 7.742z"/><path d="m368.584 372.856v42.147c0 4.276 3.466 7.742 7.742 7.742s7.742-3.466 7.742-7.742v-42.147c0-4.276-3.466-7.742-7.742-7.742s-7.742 3.466-7.742 7.742z"/><path d="m410.341 372.856c0-4.276-3.466-7.742-7.742-7.742s-7.742 3.466-7.742 7.742v42.147c0 4.276 3.466 7.742 7.742 7.742s7.742-3.466 7.742-7.742z"/><path d="m436.614 415.003v-25.178c0-4.276-3.466-7.742-7.742-7.742s-7.742 3.466-7.742 7.742v25.178c0 4.276 3.466 7.742 7.742 7.742s7.742-3.466 7.742-7.742z"/></g><path d="m172.448 357.233c0-7.333-6.534-13.287-13.846-12.557l-46.303 4.53c-6.493.635-11.39 6.033-11.39 12.557v31.531c-1.036-.185-2.095-.303-3.182-.31-.038 0-.076 0-.113 0-10.301 0-18.713 8.35-18.776 18.665-.062 10.354 8.312 18.828 18.666 18.889h.115c4.972 0 9.655-1.922 13.195-5.421 3.388-3.348 5.323-7.761 5.538-12.491.027-.264.041-.535.041-.8v-47.464l40.571-3.97v27.41c-1.042-.184-2.102-.298-3.181-.304-.038 0-.076 0-.114 0-10.302 0-18.714 8.35-18.776 18.665-.061 10.354 8.312 18.828 18.666 18.889h.115c4.972 0 9.655-1.922 13.195-5.42 3.387-3.348 5.323-7.761 5.538-12.491.027-.264.041-.535.041-.8z" fill="#ff4755"/><path d="m234.472 371.226v43.777c0 4.276 3.466 7.742 7.742 7.742s7.742-3.466 7.742-7.742v-43.777c0-4.276-3.466-7.742-7.742-7.742s-7.742 3.466-7.742 7.742z" fill="#ffc265"/><path d="m33.944 71.818c0 7.149 5.816 12.965 12.965 12.965s12.965-5.816 12.965-12.965c0-7.148-5.816-12.964-12.965-12.964-7.15 0-12.965 5.815-12.965 12.964z" fill="#ff4755"/><path d="m72.676 71.818c0 7.149 5.816 12.965 12.964 12.965s12.965-5.816 12.965-12.965c0-7.148-5.816-12.964-12.965-12.964s-12.964 5.815-12.964 12.964z" fill="#ffc265"/><path d="m111.408 71.818c0 7.149 5.816 12.965 12.965 12.965s12.965-5.816 12.965-12.965c0-7.148-5.816-12.964-12.965-12.964s-12.965 5.815-12.965 12.964z" fill="#8bcaff"/></g><g><path d="m325.362 173.248h-29.237-80.258-29.237c-4.267 0-7.727 3.459-7.727 7.727v29.741 29.741 29.741c0 4.268 3.46 7.727 7.727 7.727h29.237 80.258 29.237c4.267 0 7.727-3.459 7.727-7.727v-29.741-29.741-29.741c0-4.268-3.459-7.727-7.727-7.727zm-21.51 45.195h13.783v14.288h-13.783zm13.783-15.454h-13.783v-14.288h13.783zm-123.277 15.454h13.783v14.288h-13.783zm0-29.741h13.783v14.288h-13.783zm0 59.482h13.783v14.288h-13.783zm123.277 14.288h-13.783v-14.288h13.783z" fill="#8c808a"/><path d="m317.635 251.654v10.818h-13.783v-10.818h-95.711v10.818h-13.783v-10.818h-15.454v18.545c0 4.268 3.46 7.727 7.727 7.727h29.237 80.258 29.237c4.267 0 7.727-3.459 7.727-7.727v-18.545z" fill="#7b7179"/></g></g></svg>